<svg xmlns="http://www.w3.org/2000/svg" width="32" height="32" viewBox="0 0 32 32">
  <rect width="32" height="32" rx="8" fill="#241c10"/>
  <path fill="#d6870f" d="M16.37,23.37 Q15.10,23.37 14.00,23.06 Q12.90,22.75 12.14,22.32 L11.46,23.00 L10.63,23.00 L10.51,17.99 L11.35,17.99 Q11.63,18.70 12.07,19.49 Q12.51,20.28 13.08,20.91 Q13.68,21.57 14.42,21.98 Q15.16,22.38 16.14,22.38 Q17.47,22.38 18.18,21.73 Q18.88,21.08 18.88,20.10 Q18.88,19.29 18.28,18.74 Q17.68,18.18 16.43,17.78 Q15.60,17.52 14.92,17.30 Q14.23,17.07 13.62,16.84 Q12.22,16.28 11.55,15.25 Q10.87,14.21 10.87,12.93 Q10.87,12.12 11.22,11.38 Q11.57,10.63 12.24,10.03 Q12.89,9.47 13.89,9.12 Q14.90,8.77 16.08,8.77 Q17.23,8.77 18.24,9.09 Q19.25,9.41 19.82,9.73 L20.42,9.14 L21.27,9.14 L21.35,13.87 L20.51,13.87 Q20.21,13.11 19.82,12.31 Q19.42,11.52 18.98,10.99 Q18.50,10.42 17.88,10.08 Q17.25,9.75 16.42,9.75 Q15.36,9.75 14.69,10.34 Q14.02,10.94 14.02,11.82 Q14.02,12.65 14.60,13.17 Q15.18,13.70 16.42,14.10 Q17.14,14.35 17.89,14.59 Q18.64,14.83 19.23,15.06 Q20.64,15.61 21.38,16.57 Q22.12,17.53 22.12,18.96 Q22.12,19.86 21.70,20.70 Q21.28,21.53 20.57,22.09 Q19.78,22.71 18.76,23.04 Q17.73,23.37 16.37,23.37 Z"/>
</svg>
